<svg width="620" height="260" xmlns="http://www.w3.org/2000/svg">
  <rect width="620" height="260" fill="white"/>
  <line x1="40" y1="210" x2="580" y2="210" stroke="black" stroke-width="2"/>
  <text x="310" y="35" text-anchor="middle" font-size="18" font-family="Arial">Example heights: [0,1,0,2,1,0,1,3,2,1,2,1]</text>

  <rect x="60" y="210" width="24" height="0" fill="#4a4a4a"/>
  <rect x="95" y="210" width="24" height="30" fill="#4a4a4a"/>
  <rect x="130" y="210" width="24" height="0" fill="#4a4a4a"/>
  <rect x="165" y="210" width="24" height="60" fill="#4a4a4a"/>
  <rect x="200" y="210" width="24" height="30" fill="#4a4a4a"/>
  <rect x="235" y="210" width="24" height="0" fill="#4a4a4a"/>
  <rect x="270" y="210" width="24" height="30" fill="#4a4a4a"/>
  <rect x="305" y="210" width="24" height="90" fill="#4a4a4a"/>
  <rect x="340" y="210" width="24" height="60" fill="#4a4a4a"/>
  <rect x="375" y="210" width="24" height="30" fill="#4a4a4a"/>
  <rect x="410" y="210" width="24" height="60" fill="#4a4a4a"/>
  <rect x="445" y="210" width="24" height="30" fill="#4a4a4a"/>

  <rect x="60" y="180" width="24" height="30" fill="#5bc0eb"/>
  <rect x="130" y="150" width="24" height="60" fill="#5bc0eb"/>
  <rect x="200" y="180" width="24" height="30" fill="#5bc0eb"/>
  <rect x="235" y="150" width="24" height="60" fill="#5bc0eb"/>
  <rect x="270" y="180" width="24" height="30" fill="#5bc0eb"/>
  <rect x="340" y="180" width="24" height="30" fill="#5bc0eb"/>
  <rect x="375" y="180" width="24" height="30" fill="#5bc0eb"/>
  <rect x="445" y="180" width="24" height="30" fill="#5bc0eb"/>

  <text x="310" y="240" text-anchor="middle" font-size="16" font-family="Arial">Blue areas show trapped water</text>
</svg>